<?xml version="1.0" encoding="utf-8"?>
<!-- Generator: Adobe Illustrator 25.0.0, SVG Export Plug-In . SVG Version: 6.00 Build 0)  -->
<svg version="1.1" id="Layer_1" xmlns="http://www.w3.org/2000/svg" xmlns:xlink="http://www.w3.org/1999/xlink" x="0px" y="0px"
	 viewBox="0 0 234 189" style="enable-background:new 0 0 234 189;" xml:space="preserve">
<style type="text/css">
	.st0{fill:#E2E2E2;}
	.st1{fill:#506B33;}
	.st2{fill:#6E5773;}
	.st3{fill:#925240;}
	.st4{fill:#454223;}
	.st5{fill:#48373F;}
	.st6{fill:#234135;}
	.st7{fill:#7E5A29;}
	.st8{fill:#41596B;}
	.st9{fill:#8D5163;}
	.st10{fill:none;}
	.st11{font-family:'MyriadPro-Regular';}
	.st12{font-size:7px;}
	.st13{font-size:6px;}
	.st14{fill:#246B51;}
	.st15{fill:#693836;}
	.st16{fill:#695D63;}
	.st17{fill:#4D6057;}
	.st18{fill:#7E5A50;}
	.st19{fill:#593A26;}
	.st20{fill:#406746;}
	.st21{fill:#266C6B;}
</style>
<rect class="st0" width="234" height="189"/>
<ellipse class="st1" cx="21.71" cy="11.03" rx="9.71" ry="8.03"/>
<ellipse class="st2" cx="21.71" cy="31.55" rx="9.71" ry="8.03"/>
<ellipse class="st3" cx="21.71" cy="52.06" rx="9.71" ry="8.03"/>
<ellipse class="st4" cx="21.71" cy="93.09" rx="9.71" ry="8.03"/>
<ellipse class="st5" cx="21.71" cy="113.61" rx="9.71" ry="8.03"/>
<ellipse class="st6" cx="21.71" cy="134.12" rx="9.71" ry="8.03"/>
<ellipse class="st7" cx="21.71" cy="154.64" rx="9.71" ry="8.03"/>
<ellipse class="st8" cx="21.71" cy="175.15" rx="9.71" ry="8.03"/>
<ellipse class="st9" cx="137.75" cy="11.03" rx="9.71" ry="8.03"/>
<rect x="34.54" y="3" class="st10" width="83.29" height="16.07"/>
<text transform="matrix(1 0 0 1 34.5405 9.3174)"><tspan x="0" y="0" class="st11 st12">National Museum of </tspan><tspan x="0" y="8.4" class="st11 st12">American History</tspan></text>
<rect x="34.54" y="23.52" class="st10" width="83.29" height="16.07"/>
<text transform="matrix(1 0 0 1 34.5405 34.0327)" class="st11 st12">National Portrait Gallery</text>
<rect x="34.54" y="44.03" class="st10" width="83.29" height="16.07"/>
<text transform="matrix(1 0 0 1 34.5405 50.3476)"><tspan x="0" y="0" class="st11 st12">Smithsonian Institution </tspan><tspan x="0" y="8.4" class="st11 st12">Archives</tspan></text>
<rect x="34.54" y="85.06" class="st10" width="83.29" height="16.07"/>
<text transform="matrix(1 0 0 1 34.5405 95.578)" class="st11 st12">Archives of American Art</text>
<rect x="34.54" y="105.58" class="st10" width="83.29" height="16.07"/>
<text transform="matrix(1 0 0 1 34.5405 112.138)"><tspan x="0" y="0" class="st11 st13">National Museum of African </tspan><tspan x="0" y="7.2" class="st11 st13">American History and Culture</tspan></text>
<rect x="34.54" y="126.09" class="st10" width="83.29" height="16.07"/>
<text transform="matrix(1 0 0 1 34.5405 136.6082)" class="st11 st12">Freer Sackler Gallery</text>
<rect x="34.54" y="146.61" class="st10" width="83.29" height="16.07"/>
<text transform="matrix(1 0 0 1 34.5405 157.1233)" class="st11 st12">Freer Sackler Archives</text>
<rect x="34.54" y="167.12" class="st10" width="83.29" height="16.07"/>
<text transform="matrix(1 0 0 1 34.5405 177.6384)" class="st11 st12">Smithsonian Gardens</text>
<rect x="150.59" y="3" class="st10" width="83.29" height="16.07"/>
<text transform="matrix(1 0 0 1 150.5885 13.1626)" class="st11 st13">Smithsonain Field Book Project</text>
<ellipse class="st14" cx="137.75" cy="31.55" rx="9.71" ry="8.03"/>
<ellipse class="st15" cx="137.75" cy="52.06" rx="9.71" ry="8.03"/>
<ellipse class="st16" cx="137.75" cy="72.58" rx="9.71" ry="8.03"/>
<ellipse class="st16" cx="137.75" cy="93.09" rx="9.71" ry="8.03"/>
<ellipse class="st17" cx="137.75" cy="113.61" rx="9.71" ry="8.03"/>
<ellipse class="st18" cx="137.75" cy="134.12" rx="9.71" ry="8.03"/>
<ellipse class="st19" cx="137.75" cy="154.64" rx="9.71" ry="8.03"/>
<ellipse class="st20" cx="137.75" cy="175.15" rx="9.71" ry="8.03"/>
<rect x="150.59" y="23.52" class="st10" width="83.29" height="16.07"/>
<text transform="matrix(1 0 0 1 150.5885 29.8325)"><tspan x="0" y="0" class="st11 st12">National Museum of African </tspan><tspan x="0" y="8.4" class="st11 st12">Art</tspan></text>
<rect x="150.59" y="44.03" class="st10" width="83.29" height="16.07"/>
<text transform="matrix(1 0 0 1 150.5885 54.5478)" class="st11 st12">Human Studies Film Archive</text>
<rect x="150.59" y="64.55" class="st10" width="83.29" height="16.07"/>
<text transform="matrix(1 0 0 1 150.5885 75.0629)" class="st11 st12">National Postal Museum</text>
<rect x="150.59" y="85.06" class="st10" width="83.29" height="16.07"/>
<text transform="matrix(1 0 0 1 150.5885 95.578)" class="st11 st12">Cooper Hewitt</text>
<rect x="150.59" y="105.58" class="st10" width="83.29" height="16.07"/>
<text transform="matrix(1 0 0 1 150.5885 111.8929)"><tspan x="0" y="0" class="st11 st12">National Museum of the </tspan><tspan x="0" y="8.4" class="st11 st12">American Indian</tspan></text>
<rect x="150.59" y="126.09" class="st10" width="83.29" height="16.07"/>
<text transform="matrix(1 0 0 1 150.5885 132.408)"><tspan x="0" y="0" class="st11 st12">Folklife Archives and </tspan><tspan x="0" y="8.4" class="st11 st12">Collections</tspan></text>
<rect x="150.59" y="146.61" class="st10" width="83.29" height="16.07"/>
<text transform="matrix(1 0 0 1 150.5885 152.9236)"><tspan x="0" y="0" class="st11 st12">National Anthropological </tspan><tspan x="0" y="8.4" class="st11 st12">Archives</tspan></text>
<rect x="150.59" y="167.12" class="st10" width="83.29" height="16.07"/>
<text transform="matrix(1 0 0 1 150.5885 173.4387)"><tspan x="0" y="0" class="st11 st12">National Air and Space </tspan><tspan x="0" y="8.4" class="st11 st12">Museum</tspan></text>
<ellipse class="st21" cx="21.71" cy="72.58" rx="9.71" ry="8.03"/>
<rect x="34.54" y="64.55" class="st10" width="83.29" height="16.07"/>
<text transform="matrix(1 0 0 1 34.5405 70.8627)"><tspan x="0" y="0" class="st11 st12">Smithsonian American Art </tspan><tspan x="0" y="8.4" class="st11 st12">Museum</tspan></text>
</svg>
